<?xml version="1.0" encoding="UTF-8"?>
<svg width="111px" height="141px" viewBox="0 0 111 141" version="1.1" xmlns="http://www.w3.org/2000/svg" xmlns:xlink="http://www.w3.org/1999/xlink">
    <!-- Generator: Sketch 46.2 (44496) - http://www.bohemiancoding.com/sketch -->
    <title>Clone your best sales rep</title>
    <desc>Created with Sketch.</desc>
    <defs></defs>
    <g id="web" stroke="none" stroke-width="1" fill="none" fill-rule="evenodd">
        <g id="home-1440" transform="translate(-263.000000, -2758.000000)" fill="#FFFFFF">
            <g id="Sales-athlete" transform="translate(0.000000, 2399.000000)">
                <g id="1" transform="translate(123.000000, 281.000000)">
                    <g id="Clone-your-best-sales-rep" transform="translate(141.000000, 79.000000)">
                        <path d="M0,44.4195 L0,139 L90,139 L90,17 L27.6278049,17 L0,44.4195 Z M26.3414634,24.4376429 L26.3414634,43.1428571 L7.49414634,43.1428571 L26.3414634,24.4376429 Z M85.6097561,134.642857 L4.3902439,134.642857 L4.3902439,47.5 L30.7317073,47.5 L30.7317073,21.3571429 L85.6097561,21.3571429 L85.6097561,134.642857 Z" id="Shape" stroke="#FFFFFF" fill-rule="nonzero" stroke-linejoin="round"></path>
                        <polygon id="Shape" stroke="#FFFFFF" fill-rule="nonzero" stroke-linejoin="round" points="91.4368825 117.642857 91.4368825 122 109 122 109 0 46.6201976 0 35 11.5311786 38.104281 14.6116786 48.4379802 4.35714286 104.609221 4.35714286 104.609221 117.642857"></polygon>
                        <g id="Group-9" transform="translate(13.000000, 65.000000)">
                            <rect id="Rectangle" x="0" y="0" width="9" height="5"></rect>
                            <rect id="Rectangle" x="14" y="0" width="49" height="5"></rect>
                        </g>
                        <g id="Group-8" transform="translate(13.000000, 80.000000)">
                            <rect id="Rectangle" x="0" y="0" width="9" height="5"></rect>
                            <rect id="Rectangle" x="14" y="0" width="36" height="5"></rect>
                        </g>
                        <g id="Group-7" transform="translate(13.000000, 95.000000)">
                            <rect id="Rectangle" x="0" y="0" width="9" height="5"></rect>
                            <rect id="Rectangle" x="14" y="0" width="41" height="5"></rect>
                        </g>
                        <g id="Group-6" transform="translate(13.000000, 110.000000)">
                            <rect id="Rectangle" x="0" y="0" width="9" height="5"></rect>
                            <rect id="Rectangle" x="14" y="0" width="49" height="5"></rect>
                        </g>
                    </g>
                </g>
            </g>
        </g>
    </g>
</svg>