<?xml version="1.0" encoding="UTF-8"?>
<svg width="161px" height="160px" viewBox="0 0 161 160" version="1.1" xmlns="http://www.w3.org/2000/svg" xmlns:xlink="http://www.w3.org/1999/xlink">
    <!-- Generator: Sketch 46.2 (44496) - http://www.bohemiancoding.com/sketch -->
    <title>Cloud Store Icon</title>
    <desc>Created with Sketch.</desc>
    <defs></defs>
    <g id="web" stroke="none" stroke-width="1" fill="none" fill-rule="evenodd">
        <g id="home-1440" transform="translate(-238.000000, -1864.000000)" fill="#FFFFFF">
            <g id="Markaccel" transform="translate(-2.000000, 1509.000000)">
                <g id="1" transform="translate(122.000000, 281.000000)">
                    <g id="Cloud-Store-Icon" transform="translate(118.000000, 74.000000)">
                        <path d="M108.171036,106 L108.171036,100.95185 L128.296267,100.95185 C143.554552,100.95185 155.968229,88.4977652 155.968229,73.1898126 C155.968229,58.8015635 146.234336,47.9527791 133.328038,47.9527791 L130.811227,47.9527791 L130.811227,45.4277751 C130.811227,35.6677709 125.525738,25.2370335 110.685995,25.2370335 L106.689469,25.2370335 L105.970909,23.9364428 C99.4409041,12.1084994 87.0957497,5.0481499 72.9523437,5.0481499 C52.1437396,5.0481499 35.2186921,22.0282905 35.2186921,42.9046292 L35.2186921,45.4277751 L32.7018807,45.4277751 C17.4435958,45.4277751 5.0299189,57.8818601 5.0299189,73.1898126 C5.0299189,88.4977652 17.4435958,100.95185 32.7018807,100.95185 L52.8271122,100.95185 L52.8271122,106 L32.7018807,106 C14.6712141,106 0,91.2810293 0,73.1898126 C0,55.9254001 13.3618796,41.7322396 30.2554437,40.4725246 C31.5166274,17.9407197 50.1843676,0 72.9523437,0 C88.4291597,0 102.024386,7.51741424 109.622971,20.1907416 L110.685995,20.1907416 C125.14979,20.1907416 134.76701,29.0626282 135.75966,43.0086764 C150.310496,44.2721074 161,56.8228077 161,73.1898126 C161,91.2810293 146.328786,106 128.296267,106 L108.171036,106 Z" id="Fill-463"></path>
                        <path d="M80.5,30.0629659 C60.9599706,30.0629659 45.0629659,45.9599706 45.0629659,65.5 C45.0629659,85.0400294 60.9599706,100.937034 80.5,100.937034 C100.040029,100.937034 115.937034,85.0400294 115.937034,65.5 C115.937034,45.9599706 100.040029,30.0629659 80.5,30.0629659 M80.5,106 C58.1685378,106 40,87.8314622 40,65.5 C40,43.1685378 58.1685378,25 80.5,25 C102.831462,25 121,43.1685378 121,65.5 C121,87.8314622 102.831462,106 80.5,106" id="Fill-464"></path>
                        <path d="M80.5,42.0005019 C68.0935283,42.0005019 58.0005019,52.0935283 58.0005019,64.5 C58.0005019,76.9083121 68.0935283,87.0013385 80.5,87.0013385 C92.9064717,87.0013385 102.999498,76.9083121 102.999498,64.5 C102.999498,52.0935283 92.9064717,42.0005019 80.5,42.0005019 M80.5,92 C65.3365346,92 53,79.6634654 53,64.5 C53,49.3365346 65.3365346,37 80.5,37 C95.6634654,37 108,49.3365346 108,64.5 C108,79.6634654 95.6634654,92 80.5,92" id="Fill-465"></path>
                        <path d="M70.0006135,65 L65,65 C65,56.7288344 71.7288344,50 80,50 L80,55.0006135 C74.4858896,55.0006135 70.0006135,59.4840491 70.0006135,65" id="Fill-466"></path>
                        <path d="M80.5,160 C73.6077002,160 68,154.392197 68,147.49977 L68,100 L73.0003681,100 L73.0003681,147.49977 C73.0003681,151.635226 76.3646201,154.99954 80.5,154.99954 C84.6353799,154.99954 87.9996319,151.635226 87.9996319,147.49977 L87.9996319,100 L93,100 L93,147.49977 C93,154.392197 87.3922998,160 80.5,160" id="Fill-467"></path>
                        <polygon id="Fill-468" points="78 125 83 125 83 120 78 120"></polygon>
                        <polygon id="Fill-468" points="78 135 83 135 83 130 78 130"></polygon>
                        <polygon id="Fill-470" points="78 146 83 146 83 141 78 141"></polygon>
                    </g>
                </g>
            </g>
        </g>
    </g>
</svg>