<?xml version="1.0" encoding="UTF-8"?>
<svg width="167px" height="154px" viewBox="0 0 167 154" version="1.1" xmlns="http://www.w3.org/2000/svg" xmlns:xlink="http://www.w3.org/1999/xlink">
    <!-- Generator: Sketch 46.2 (44496) - http://www.bohemiancoding.com/sketch -->
    <title>Lightning Fast Seach</title>
    <desc>Created with Sketch.</desc>
    <defs></defs>
    <g id="web" stroke="none" stroke-width="1" fill="none" fill-rule="evenodd">
        <g id="home-1440" transform="translate(-637.000000, -1867.000000)" fill="#FFFFFF">
            <g id="Markaccel" transform="translate(-2.000000, 1509.000000)">
                <g id="1" transform="translate(524.000000, 281.000000)">
                    <g id="Lightning-Fast-Seach" transform="translate(115.000000, 77.000000)">
                        <path d="M83.5,78.2504831 C80.6049144,78.2504831 78.2490337,80.6061471 78.2490337,83.5009662 C78.2490337,86.3938529 80.6049144,88.7495169 83.5,88.7495169 C86.3950856,88.7495169 88.7509663,86.3938529 88.7509663,83.5009662 C88.7509663,80.6061471 86.3950856,78.2504831 83.5,78.2504831 M83.5,94 C77.7078962,94 73,89.2906046 73,83.5009662 C73,77.7093954 77.7078962,73 83.5,73 C89.2921038,73 94,77.7093954 94,83.5009662 C94,89.2906046 89.2921038,94 83.5,94" id="Fill-471"></path>
                        <path d="M27.1914074,138.763111 L139.806672,138.763111 C153.787531,124.224334 161.78071,104.252068 161.78071,83.7805916 C161.78071,40.4707268 126.663358,5.23688931 83.4990395,5.23688931 C40.3347213,5.23688931 5.2173693,40.4707268 5.2173693,83.7805916 C5.2173693,104.255923 13.2124691,124.230116 27.1914074,138.763111 L27.1914074,138.763111 Z M141.990821,144 L25.0072583,144 L24.2407891,143.227091 C8.83456606,127.659055 0,105.992558 0,83.7805916 C0,37.5853299 37.4590211,0 83.4990395,0 C129.540979,0 167,37.5853299 167,83.7805916 C167,105.986776 158.165434,127.653273 142.759211,143.225164 L141.990821,144 Z" id="Fill-472"></path>
                        <path d="M29.6009627,124 C20.7018051,112.136199 16,98.0003185 16,83.119937 C16,45.5573408 46.5039711,15 84.0009627,15 C121.496029,15 152,45.5573408 152,83.119937 C152,97.9945322 147.298195,112.130412 138.404813,123.992285 L134.220939,120.844549 C142.428881,109.896909 146.768712,96.8507777 146.768712,83.119937 C146.768712,48.4485517 118.609868,20.2404403 84.0009627,20.2404403 C49.3901324,20.2404403 21.2312876,48.4485517 21.2312876,83.119937 C21.2312876,96.856564 25.5711191,109.904624 33.7848375,120.852264 L29.6009627,124 Z" id="Fill-473"></path>
                        <polygon id="Fill-474" points="81 127 86 127 86 122 81 122"></polygon>
                        <polygon id="Fill-475" points="71 127 76 127 76 122 71 122"></polygon>
                        <polygon id="Fill-476" points="92 127 97 127 97 122 92 122"></polygon>
                        <polygon id="Fill-477" points="102 127 107 127 107 122 102 122"></polygon>
                        <polygon id="Fill-478" points="60 127 65 127 65 122 60 122"></polygon>
                        <polygon id="Fill-479" points="18 86 26 86 26 81 18 81"></polygon>
                        <polygon id="Fill-480" points="81 26 86 26 86 18 81 18"></polygon>
                        <polygon id="Fill-481" points="141 86 149 86 149 81 141 81"></polygon>
                        <polygon id="Fill-482" points="43.155437 46 35 37.844563 38.844563 34 47 42.155437"></polygon>
                        <polygon id="Fill-483" points="124.844563 46 121 42.155437 129.155437 34 133 37.844563"></polygon>
                        <polygon id="Fill-484" points="90.7168655 80 87 76.2828947 113.283134 50 117 53.7151703"></polygon>
                        <path d="M60.7011444,100 C56.9722259,94.9923466 55,89.0266405 55,82.745431 C55,66.8952365 67.7851359,54 83.5,54 C99.2148641,54 112,66.8952365 112,82.745431 C112,89.0208691 110.029681,94.9846514 106.30267,99.9942286 L102.157944,96.8565096 C105.207837,92.7607377 106.819569,87.8800552 106.819569,82.745431 C106.819569,69.77709 96.3595235,59.2269667 83.5,59.2269667 C70.6423839,59.2269667 60.1823384,69.77709 60.1823384,82.745431 C60.1823384,87.8858266 61.7940704,92.7645853 64.8458707,96.8603572 L60.7011444,100 Z" id="Fill-485"></path>
                        <polygon id="Fill-486" points="32 154 136 154 136 149 32 149"></polygon>
                    </g>
                </g>
            </g>
        </g>
    </g>
</svg>