<?xml version="1.0" encoding="UTF-8" standalone="no"?>
<svg width="171px" height="22px" viewBox="0 0 171 22" version="1.1" xmlns="http://www.w3.org/2000/svg" xmlns:xlink="http://www.w3.org/1999/xlink">
    <!-- Generator: Sketch 44.1 (41455) - http://www.bohemiancoding.com/sketch -->
    <title>Page 1</title>
    <desc>Created with Sketch.</desc>
    <defs>
        <polygon id="path-1" points="18.77516 0.218821429 0 0.218821429 0 20.8213107 18.77516 20.8213107 18.77516 0.218821429"></polygon>
        <polygon id="path-3" points="18.98768 0.218821429 0.21128 0.218821429 0.21128 20.8213107 18.98768 20.8213107"></polygon>
    </defs>
    <g id="web" stroke="none" stroke-width="1" fill="none" fill-rule="evenodd">
        <g id="home-1440" transform="translate(-222.000000, -90.000000)">
            <g id="header" transform="translate(120.000000, 69.000000)">
                <g id="logo" transform="translate(0.000000, 0.504900)">
                    <g id="Page-1" transform="translate(102.000000, 21.000000)">
                        <g id="Group-3" transform="translate(0.000000, 0.174193)">
                            <mask id="mask-2" fill="white">
                                <use xlink:href="#path-1"></use>
                            </mask>
                            <g id="Clip-2"></g>
                            <path d="M15.00196,10.5060607 C15.00196,6.55156071 12.48596,3.40123929 7.83076,3.40123929 L3.67916,3.40123929 L3.67916,17.6411321 L7.79916,17.6411321 C12.35996,17.6411321 15.00196,14.4275607 15.00196,10.5060607 L15.00196,10.5060607 Z M-3.99999976e-05,20.8213107 L-3.99999976e-05,0.218703571 L7.79916,0.218703571 C14.37236,0.218703571 18.77516,4.482775 18.77516,10.5060607 C18.77516,16.591025 14.37236,20.8213107 7.83076,20.8213107 L-3.99999976e-05,20.8213107 Z" id="Fill-1" fill="#072F4C" mask="url(#mask-2)"></path>
                        </g>
                        <path d="M28.87304,7.435725 L25.82224,14.8501179 L31.89224,14.8501179 L28.87304,7.435725 Z M30.91704,4.00765357 L38.05624,20.9955821 L34.21944,20.9955821 L32.89824,17.7835821 L24.81544,17.7835821 L23.49544,20.9955821 L19.62664,20.9955821 L26.79824,4.00765357 L30.91704,4.00765357 Z" id="Fill-4" fill="#072F4C"></path>
                        <polygon id="Fill-6" fill="#072F4C" points="43.28008 20.9956214 43.28008 6.94272857 38.15328 6.94272857 38.15328 4.00769286 51.80288 4.00769286 51.80288 6.94272857 46.70728 6.94272857 46.70728 20.9956214"></polygon>
                        <path d="M61.14492,7.435725 L58.09452,14.8501179 L64.16372,14.8501179 L61.14492,7.435725 Z M63.18892,4.00765357 L70.32852,20.9955821 L66.49172,20.9955821 L65.17052,17.7835821 L57.08772,17.7835821 L55.76772,20.9955821 L51.89892,20.9955821 L59.06972,4.00765357 L63.18892,4.00765357 Z" id="Fill-8" fill="#072F4C"></path>
                        <g id="Group-12" transform="translate(78.800000, 0.174193)">
                            <mask id="mask-4" fill="white">
                                <use xlink:href="#path-3"></use>
                            </mask>
                            <g id="Clip-11"></g>
                            <path d="M15.21248,10.5060607 C15.21248,6.55156071 12.69608,3.40123929 8.04208,3.40123929 L3.89128,3.40123929 L3.89128,17.6411321 L8.01048,17.6411321 C12.57088,17.6411321 15.21248,14.4275607 15.21248,10.5060607 L15.21248,10.5060607 Z M0.21128,20.8213107 L0.21128,0.218703571 L8.01048,0.218703571 C14.58368,0.218703571 18.98768,4.482775 18.98768,10.5060607 C18.98768,16.591025 14.58368,20.8213107 8.04208,20.8213107 L0.21128,20.8213107 Z" id="Fill-10" fill="#072F4C" mask="url(#mask-4)"></path>
                        </g>
                        <polygon id="Fill-13" fill="#072F4C" points="115.62188 20.9956214 112.19428 8.95062143 108.82988 20.9956214 105.21228 20.9956214 100.02268 4.00769286 103.85908 4.00769286 107.22508 16.5178357 110.84148 4.00769286 113.57748 4.00769286 117.19468 16.5178357 120.59028 4.00769286 124.39668 4.00769286 119.20708 20.9956214"></polygon>
                        <polygon id="Fill-15" fill="#072F4C" points="127.44884 20.9956214 127.44884 4.00769286 140.06004 4.00769286 140.06004 6.94272857 130.90844 6.94272857 130.90844 10.8650143 139.90244 10.8650143 139.90244 13.7988714 130.90844 13.7988714 130.90844 18.0621571 140.06004 18.0621571 140.06004 20.9956214"></polygon>
                        <polygon id="Fill-17" fill="#072F4C" points="144.43476 20.9956214 144.43476 4.00769286 147.89356 4.00769286 147.89356 18.0621571 155.81876 18.0621571 155.81876 20.9956214"></polygon>
                        <polygon id="Fill-17" fill="#072F4C" points="159.43476 20.9956214 159.43476 4.00769286 162.89356 4.00769286 162.89356 18.0621571 170.81876 18.0621571 170.81876 20.9956214"></polygon>
                    </g>
                </g>
            </g>
        </g>
    </g>
</svg>