<?xml version="1.0" encoding="UTF-8"?>
<svg width="145px" height="144px" viewBox="0 0 145 144" version="1.1" xmlns="http://www.w3.org/2000/svg" xmlns:xlink="http://www.w3.org/1999/xlink">
    <!-- Generator: Sketch 46.2 (44496) - http://www.bohemiancoding.com/sketch -->
    <title>Match winning content icon</title>
    <desc>Created with Sketch.</desc>
    <defs></defs>
    <g id="web" stroke="none" stroke-width="1" fill="none" fill-rule="evenodd">
        <g id="home-1440" transform="translate(-647.000000, -2759.000000)" fill="#FFFFFF">
            <g id="Sales-athlete" transform="translate(0.000000, 2399.000000)">
                <g id="2" transform="translate(524.000000, 281.000000)">
                    <g id="Match-winning-content-icon" transform="translate(123.000000, 79.000000)">
                        <polygon id="Fill-487" points="140 95 145 95 145 27 140 27"></polygon>
                        <polygon id="Fill-488" points="144 18 139.499586 18 139.499586 4.5004141 126 4.5004141 126 0 144 0"></polygon>
                        <polygon id="Fill-489" points="4.50044595 34 0 34 0 0 117 0 117 4.53222086 4.50044595 4.53222086"></polygon>
                        <polygon id="Fill-490" points="9 87 135 87 135 82 9 82"></polygon>
                        <polygon id="Fill-492" points="47.8555202 134 31 124.094517 33.2407536 120.061546 47.996814 128.7344 64.9803297 120 67 124.154353"></polygon>
                        <path d="M137.250129,144 L6.74987059,144 C3.09086099,144 0,139.955294 0,135.167649 L0,129.46962 L16.8837867,120 L19.1166274,123.834993 L4.50046587,132.031701 L4.50046587,135.167649 C4.50046587,137.869539 6.08233738,139.583012 6.74987059,139.583012 L137.250129,139.583012 C137.917663,139.583012 139.499534,137.869539 139.499534,135.167649 L139.499534,132.031701 L124.883373,123.834993 L127.116213,120 L144,129.46962 L144,135.167649 C144,139.955294 140.909139,144 137.250129,144" id="Fill-493"></path>
                        <path d="M24.5,99.5719093 C17.6853988,99.5719093 15.5005521,102.070726 15.5005521,109.858285 C15.5005521,115.953042 18.6544172,122.429773 24.5,122.429773 C30.3455828,122.429773 33.4994479,115.953042 33.4994479,109.858285 C33.4994479,102.070726 31.3146012,99.5719093 24.5,99.5719093 M24.5,127 C16.8025153,127 11,119.631435 11,109.858285 C11,102.940685 12.533865,95 24.5,95 C36.466135,95 38,102.940685 38,109.858285 C38,119.631435 32.1974847,127 24.5,127" id="Fill-495"></path>
                        <path d="M72.5,99.5719093 C65.6853988,99.5719093 63.5005521,102.070726 63.5005521,109.858285 C63.5005521,115.953042 66.6544172,122.429773 72.5,122.429773 C78.3455828,122.429773 81.4994479,115.953042 81.4994479,109.858285 C81.4994479,102.070726 79.3129448,99.5719093 72.5,99.5719093 M72.5,127 C64.8025153,127 59,119.631435 59,109.858285 C59,102.940685 60.533865,95 72.5,95 C84.466135,95 86,102.940685 86,109.858285 C86,119.631435 80.1974847,127 72.5,127" id="Fill-496"></path>
                        <path d="M119.5,99.5719093 C112.685399,99.5719093 110.500552,102.070726 110.500552,109.858285 C110.500552,115.953042 113.654417,122.429773 119.5,122.429773 C125.345583,122.429773 128.499448,115.953042 128.499448,109.858285 C128.499448,102.070726 126.312945,99.5719093 119.5,99.5719093 M119.5,127 C111.802515,127 106,119.631435 106,109.858285 C106,102.940685 107.533865,95 119.5,95 C131.466135,95 133,102.940685 133,109.858285 C133,119.631435 127.197485,127 119.5,127" id="Fill-497"></path>
                        <polygon id="Fill-498" points="45 138 50 138 50 131 45 131"></polygon>
                        <polygon id="Fill-499" points="95 138 100 138 100 131 95 131"></polygon>
                        <polygon id="Fill-500" points="18 78 36 78 36 73 18 73"></polygon>
                        <polygon id="Fill-501" points="18 69 36 69 36 64 18 64"></polygon>
                        <polygon id="Fill-502" points="41 78 59 78 59 73 41 73"></polygon>
                        <polygon id="Fill-503" points="41 69 59 69 59 64 41 64"></polygon>
                        <polygon id="Fill-504" points="63 78 81 78 81 73 63 73"></polygon>
                        <polygon id="Fill-505" points="63 69 81 69 81 64 63 64"></polygon>
                        <polygon id="Fill-506" points="63 60 81 60 81 55 63 55"></polygon>
                        <polygon id="Fill-507" points="63 51 81 51 81 46 63 46"></polygon>
                        <polygon id="Fill-508" points="86 78 104 78 104 73 86 73"></polygon>
                        <polygon id="Fill-509" points="86 69 104 69 104 64 86 64"></polygon>
                        <polygon id="Fill-510" points="86 60 104 60 104 55 86 55"></polygon>
                        <polygon id="Fill-511" points="108 78 126 78 126 73 108 73"></polygon>
                        <polygon id="Fill-512" points="108 69 126 69 126 64 108 64"></polygon>
                        <polygon id="Fill-513" points="108 60 126 60 126 55 108 55"></polygon>
                        <polygon id="Fill-514" points="108 51 126 51 126 46 108 46"></polygon>
                        <polygon id="Fill-515" points="18 60 36 60 36 55 18 55"></polygon>
                        <polygon id="Fill-491" points="4.52116436 95 0 95 0 46.7365012 20.3444076 26.4524915 45.2066515 51.2446119 76.853138 19.6911549 99.4556317 42.2283904 140.805066 1 144 4.18736872 99.4556317 48.6031278 76.853138 26.0642331 45.2066515 57.6176901 20.3444076 32.8255697 4.52116436 48.6031278"></polygon>
                        <polygon id="Fill-494" points="97.1444798 134 78 124.154353 80.0196703 120 97.003186 128.7344 111.759246 120.061546 114 124.094517"></polygon>
                    </g>
                </g>
            </g>
        </g>
    </g>
</svg>