<?xml version="1.0" encoding="UTF-8"?>
<svg width="123px" height="151px" viewBox="0 0 123 151" version="1.1" xmlns="http://www.w3.org/2000/svg" xmlns:xlink="http://www.w3.org/1999/xlink">
    <!-- Generator: Sketch 46.2 (44496) - http://www.bohemiancoding.com/sketch -->
    <title>Real time icon</title>
    <desc>Created with Sketch.</desc>
    <defs></defs>
    <g id="web" stroke="none" stroke-width="1" fill="none" fill-rule="evenodd">
        <g id="home-1440" transform="translate(-1061.000000, -2752.000000)" fill="#FFFFFF">
            <g id="Sales-athlete" transform="translate(0.000000, 2399.000000)">
                <g id="3" transform="translate(924.000000, 281.000000)">
                    <g id="Real-time-icon" transform="translate(137.000000, 72.000000)">
                        <polygon id="Fill-419" points="54 15 59 15 59 10 54 10"></polygon>
                        <polygon id="Fill-420" points="54 5 59 5 59 0 54 0"></polygon>
                        <polygon id="Fill-421" points="54 151 59 151 59 146 54 146"></polygon>
                        <polygon id="Fill-422" points="54 141 59 141 59 136 54 136"></polygon>
                        <polygon id="Fill-423" points="14 151 19 151 19 111 14 111"></polygon>
                        <polygon id="Fill-424" points="29 150 34 150 34 122 29 122"></polygon>
                        <polygon id="Fill-425" points="80 150 85 150 85 122 80 122"></polygon>
                        <polygon id="Fill-426" points="94 151 99 151 99 111 94 111"></polygon>
                        <polygon id="Fill-427" points="14 40 19 40 19 0 14 0"></polygon>
                        <polygon id="Fill-428" points="29 28 34 28 34 0 29 0"></polygon>
                        <polygon id="Fill-429" points="80 28 85 28 85 0 80 0"></polygon>
                        <polygon id="Fill-430" points="94 40 99 40 99 0 94 0"></polygon>
                        <polygon id="Fill-431" points="54 33 59 33 59 28 54 28"></polygon>
                        <polygon id="Fill-432" points="10 78 15 78 15 73 10 73"></polygon>
                        <polygon id="Fill-433" points="54 123 59 123 59 118 54 118"></polygon>
                        <polygon id="Fill-434" points="99 78 104 78 104 73 99 73"></polygon>
                        <path d="M118.199647,85 L111,85 L111,80.2495629 L118.199647,80.2495629 L118.199647,70.7504371 L111,70.7504371 L111,66 L118.199647,66 C120.84629,66 123,68.131315 123,70.7504371 L123,80.2495629 C123,82.868685 120.84629,85 118.199647,85 Z" id="Fill-435"></path>
                        <path d="M56.5,56.700519 C46.1339812,56.700519 37.700346,65.1344646 37.700346,75.500865 C37.700346,85.8672654 46.1339812,94.301211 56.5,94.301211 C66.8660188,94.301211 75.299654,85.8672654 75.299654,75.500865 C75.299654,65.1344646 66.8660188,56.700519 56.5,56.700519 M56.5,99 C43.5424764,99 33,88.4571355 33,75.500865 C33,62.5428645 43.5424764,52 56.5,52 C69.4575236,52 80,62.5428645 80,75.500865 C80,88.4571355 69.4575236,99 56.5,99" id="Fill-437"></path>
                        <path d="M56.5,23.7087666 C27.9423791,23.7087666 4.7087666,46.9423791 4.7087666,75.5 C4.7087666,104.057621 27.9423791,127.291233 56.5,127.291233 C85.0576209,127.291233 108.291233,104.057621 108.291233,75.5 C108.291233,46.9423791 85.0576209,23.7087666 56.5,23.7087666 M56.5,132 C25.3462317,132 0,106.653768 0,75.5 C0,44.3462317 25.3462317,19 56.5,19 C87.6537683,19 113,44.3462317 113,75.5 C113,106.653768 87.6537683,132 56.5,132" id="Fill-439"></path>
                        <polygon id="Fill-441" points="50.695183 72 32 53.304817 35.304817 50 54 68.695183"></polygon>
                        <polygon id="Fill-443" points="63.3036233 72 60 68.6963767 85.6963767 43 89 46.3036233"></polygon>
                        <path d="M56.5,70.7504371 C53.8806368,70.7504371 51.7491257,72.8817521 51.7491257,75.5008742 C51.7491257,78.1182479 53.8806368,80.2495629 56.5,80.2495629 C59.1193632,80.2495629 61.2508743,78.1182479 61.2508743,75.5008742 C61.2508743,72.8817521 59.1193632,70.7504371 56.5,70.7504371 M56.5,85 C51.2595251,85 47,80.7391184 47,75.5008742 C47,70.2608816 51.2595251,66 56.5,66 C61.7404749,66 66,70.2608816 66,75.5008742 C66,80.7391184 61.7404749,85 56.5,85" id="Fill-445"></path>
                    </g>
                </g>
            </g>
        </g>
    </g>
</svg>