<?xml version="1.0" encoding="UTF-8"?>
<svg width="164px" height="146px" viewBox="0 0 164 146" version="1.1" xmlns="http://www.w3.org/2000/svg" xmlns:xlink="http://www.w3.org/1999/xlink">
    <!-- Generator: Sketch 46.2 (44496) - http://www.bohemiancoding.com/sketch -->
    <title>Share and track icon</title>
    <desc>Created with Sketch.</desc>
    <defs></defs>
    <g id="web" stroke="none" stroke-width="1" fill="none" fill-rule="evenodd">
        <g id="home-1440" transform="translate(-1039.000000, -1871.000000)" fill="#FFFFFF">
            <g id="Markaccel" transform="translate(-2.000000, 1509.000000)">
                <g id="3" transform="translate(925.000000, 281.000000)">
                    <g id="Share-and-track-icon" transform="translate(116.000000, 81.000000)">
                        <path d="M137.5,72 C136.820076,72 136.140152,71.7431892 135.623106,71.2295676 L125,60.7153212 L128.755682,57 L137.5,65.6547113 L146.244318,57 L150,60.7153212 L139.376894,71.2295676 C138.857955,71.7431892 138.179924,72 137.5,72" id="Fill-447"></path>
                        <path d="M140,69 L134.700756,69 L134.700756,37.200756 C134.700756,28.4335687 127.568321,21.3011339 118.801134,21.3011339 L87,21.3011339 L87,16 L118.801134,16 C130.490087,16 140,25.5118029 140,37.200756 L140,69 Z" id="Fill-449"></path>
                        <path d="M40.2443182,87 L31.5,78.3452887 L22.7537879,87 L19,83.2828043 L29.6212121,72.7704324 C30.6590909,71.7431892 32.3390152,71.7431892 33.3768939,72.7704324 L44,83.2828043 L40.2443182,87 Z" id="Fill-451"></path>
                        <path d="M82,127 L50.200756,127 C38.5118029,127 29,117.490087 29,105.801134 L29,74 L34.3011339,74 L34.3011339,105.801134 C34.3011339,114.568321 41.4335687,121.700756 50.200756,121.700756 L82,121.700756 L82,127 Z" id="Fill-453"></path>
                        <polygon id="Fill-455" points="71 74 76 74 76 69 71 69"></polygon>
                        <polygon id="Fill-457" points="82 74 87 74 87 69 82 69"></polygon>
                        <polygon id="Fill-458" points="92 74 97 74 97 69 92 69"></polygon>
                        <path d="M5.33282617,15.750468 L25.5629517,15.750468 L34.6671738,6.78844611 L34.6671738,5.24953196 L5.33282617,5.24953196 L5.33282617,15.750468 Z M26.6660327,21 L2.66641308,21 C1.19246862,21 0,19.8261567 0,18.375234 L0,2.62476598 C0,1.17384327 1.19246862,0 2.66641308,0 L37.3335869,0 C38.8075314,0 40,1.17384327 40,2.62476598 L40,7.87429794 C40,8.572613 39.7185242,9.23910136 39.2202358,9.73147901 L28.5526816,20.2324151 C28.0524914,20.7229206 27.3754279,21 26.6660327,21 L26.6660327,21 Z" id="Fill-459"></path>
                        <path d="M5.30969186,53.700567 L71.6903081,53.700567 L71.6903081,11.299433 L38.2718196,11.299433 L28.4288174,21.1234176 C27.930797,21.6204757 27.2566707,21.900189 26.5503529,21.900189 L5.30969186,21.900189 L5.30969186,53.700567 Z M74.3451541,59 L2.65484593,59 C1.18729558,59 0,57.8149984 0,56.3502835 L0,19.2504725 C0,17.7857576 1.18729558,16.600756 2.65484593,16.600756 L25.4520572,16.600756 L35.2950594,6.77677139 C35.7930797,6.2797133 36.4672061,6 37.1716302,6 L74.3451541,6 C75.8127044,6 77,7.1850016 77,8.64971651 L77,56.3502835 C77,57.8149984 75.8127044,59 74.3451541,59 L74.3451541,59 Z" id="Fill-460"></path>
                        <path d="M92.3328262,103.750468 L112.562952,103.750468 L121.667174,94.7884461 L121.667174,93.249532 L92.3328262,93.249532 L92.3328262,103.750468 Z M113.666033,109 L89.6664131,109 C88.1924686,109 87,107.826157 87,106.375234 L87,90.624766 C87,89.1738433 88.1924686,88 89.6664131,88 L124.333587,88 C125.807531,88 127,89.1738433 127,90.624766 L127,95.8742979 C127,96.572613 126.718524,97.2391014 126.220236,97.731479 L115.552682,108.232415 C115.052491,108.722921 114.375428,109 113.666033,109 L113.666033,109 Z" id="Fill-461"></path>
                        <path d="M92,140 L158,140 L158,98 L124.774063,98 L114.98722,107.731045 C114.492041,108.223401 113.821761,108.500468 113.119473,108.500468 L92,108.500468 L92,140 Z M161.345154,146 L89.6548459,146 C88.1872956,146 87,144.814998 87,143.350283 L87,106.250472 C87,104.785758 88.1872956,103.598866 89.6548459,103.598866 L112.452057,103.598866 L122.295059,93.7767714 C122.79308,93.2797133 123.467206,93 124.17163,93 L161.345154,93 C162.812704,93 164,94.1850016 164,95.6497165 L164,143.350283 C164,144.814998 162.812704,146 161.345154,146 L161.345154,146 Z" id="Fill-462"></path>
                    </g>
                </g>
            </g>
        </g>
    </g>
</svg>